<?xml version="1.0" encoding="utf-8"?>
<!-- Generator: Adobe Illustrator 16.0.0, SVG Export Plug-In . SVG Version: 6.00 Build 0)  -->
<!DOCTYPE svg PUBLIC "-//W3C//DTD SVG 1.0//EN" "http://www.w3.org/TR/2001/REC-SVG-20010904/DTD/svg10.dtd">
<svg version="1.0" id="Layer_1" xmlns="http://www.w3.org/2000/svg" xmlns:xlink="http://www.w3.org/1999/xlink" x="0px" y="0px"
	 width="300px" height="28px" viewBox="0 0 300 28" enable-background="new 0 0 300 28" xml:space="preserve">
<g>
	<path fill="#666666" d="M189.236,15.562c0,2.267,1.748,3.781,6.293,3.781c4.33,0,5.574-1.574,5.574-3.029
		c0-1.711-1.516-2.4-4.293-2.82l-2.854-0.435c-2.642-0.405-3.282-0.975-3.282-2.115c0-1.23,1.107-2.19,4.486-2.19
		c3.65,0,4.544,1.44,4.66,2.67h0.895c-0.097-2.28-2.311-3.27-5.807-3.27c-3.438,0-5.244,1.17-5.244,2.775
		c0,1.62,1.165,2.31,4.195,2.805l2.582,0.42c2.914,0.465,3.651,1.005,3.651,2.206c0,1.26-1.243,2.385-4.642,2.385
		c-3.729,0-5.303-1.186-5.321-3.182H189.236z"/>
	<path fill="#666666" d="M203.092,15.143c0,2.76,2.059,4.201,6.137,4.201s6.138-1.439,6.138-4.201v-6.75h-0.894v6.721
		c0,2.295-1.398,3.63-5.244,3.63c-3.845,0-5.244-1.335-5.244-3.63V8.393h-0.894L203.092,15.143L203.092,15.143z"/>
	<path fill="#666666" d="M218.339,19.104h0.894v-4.709h6.195c3.03,0,4.35-1.23,4.35-3.03c0-2.445-2.271-2.97-4.213-2.97h-7.225
		L218.339,19.104L218.339,19.104z M219.232,8.993h5.963c1.203,0,3.688,0,3.688,2.4c0,1.891-1.786,2.4-3.476,2.4h-6.176V8.993z"/>
	<path fill="#666666" d="M231.689,19.104h0.894v-4.709h6.194c3.031,0,4.351-1.23,4.351-3.03c0-2.445-2.272-2.97-4.214-2.97h-7.225
		V19.104z M232.583,8.993h5.962c1.204,0,3.689,0,3.689,2.4c0,1.891-1.786,2.4-3.477,2.4h-6.175V8.993z"/>
	<path fill="#666666" d="M245.04,19.104h9.981v-0.6h-9.088V8.393h-0.894V19.104z"/>
	<path fill="#666666" d="M256.609,19.104h0.895V8.393h-0.895V19.104z"/>
	<path fill="#666666" d="M260.17,19.104h11.07v-0.6h-10.176v-4.65h9.651v-0.6h-9.651v-4.26h10.06v-0.6H260.17V19.104z"/>
	<path fill="#666666" d="M273.521,19.104h0.893v-4.875h6.176c2.738,0,3.516,0.525,3.573,2.385c0.058,1.635,0.136,2.31,0.388,2.489
		h0.895c-0.272-0.39-0.35-1.02-0.389-2.97c-0.02-1.155-0.912-2.055-2.603-2.22v-0.03c1.961-0.345,2.835-1.545,2.835-2.655
		c0-2.25-2.02-2.835-4.68-2.835h-7.088V19.104z M274.414,8.993h6.273c1.961,0,3.709,0.45,3.709,2.19
		c0,2.445-3.068,2.445-3.942,2.445h-6.04V8.993L274.414,8.993z"/>
	<path fill="#666666" d="M287.139,15.562c0,2.267,1.748,3.781,6.293,3.781c4.33,0,5.573-1.574,5.573-3.029
		c0-1.711-1.515-2.4-4.292-2.82l-2.854-0.435c-2.642-0.405-3.282-0.975-3.282-2.115c0-1.23,1.106-2.19,4.485-2.19
		c3.651,0,4.545,1.44,4.662,2.67h0.894c-0.097-2.28-2.312-3.27-5.808-3.27c-3.438,0-5.244,1.17-5.244,2.775
		c0,1.62,1.166,2.31,4.195,2.805l2.584,0.42c2.912,0.465,3.65,1.005,3.65,2.206c0,1.26-1.243,2.385-4.643,2.385
		c-3.729,0-5.301-1.186-5.32-3.182H287.139z"/>
	<path fill="#666666" d="M175,7.604h1v12h-1V7.604z"/>
	<path fill="#0062AC" d="M5.897,12.515L22.225,0h5.442L16.782,12.515H27.62v2.176H16.782l10.885,12.517h-5.442L5.897,14.689H0.455
		l2.177-2.175L5.897,12.515 M133.254,10.116v2.062h9.747v2.866h-9.747v2.08h10.706v3.297h-14.597V6.802h14.593v3.314H133.254z
		 M109.676,11.259c0,2.249-0.523,3.373-2.12,3.785c1.332,0.338,2.017,1.2,2.017,2.587v2.79h-3.892v-2.079
		c0-1.162-0.472-1.404-1.751-1.404H96.9v3.483h-3.909V6.802h11.464C108.309,6.802,109.676,7.721,109.676,11.259 M96.9,10.19v3.336
		h7.415c1.086,0,1.401-0.506,1.401-1.798c0-1.049-0.403-1.538-1.401-1.538H96.9z M162.545,11.259c0,2.249-0.525,3.373-2.12,3.785
		c1.332,0.338,2.015,1.2,2.015,2.587v2.79h-3.89v-2.079c0-1.162-0.473-1.404-1.752-1.404h-7.031v3.483h-3.905V6.802h11.461
		C161.18,6.802,162.545,7.721,162.545,11.259 M149.767,10.19v3.336h7.415c1.086,0,1.403-0.506,1.403-1.798
		c0-1.049-0.403-1.538-1.403-1.538H149.767z M109.572,20.421l7.343-13.619h5.234l7.214,13.619h-4.514l-1.296-2.269h-8.193
		l-1.312,2.269H109.572z M122.075,14.876l-2.608-4.815l-2.552,4.815H122.075z M87.479,16.074c0-0.729-0.422-1.198-1.068-1.198
		h-7.185v2.454h7.185C87.093,17.33,87.479,16.88,87.479,16.074 M87.057,10.979c0-0.675-0.402-1.125-0.998-1.125h-6.833v2.249h6.833
		C86.706,12.104,87.057,11.71,87.057,10.979 M75.335,20.421V6.802h11.477c2.856,0,4.241,1.237,4.241,3.802
		c0,1.462-0.596,2.36-1.875,2.885c1.612,0.282,2.313,1.292,2.313,3.241c0,2.623-1.262,3.69-4.083,3.69H75.335z M51.007,20.421V6.802
		h6.546l4.582,8.505l4.579-8.505h6.659v13.619h-3.898v-9.693l-5.42,9.693h-3.847l-5.221-9.7l-0.098,9.7H51.007z M38.36,10.116v2.062
		h9.748v2.866H38.36v2.08h10.707v3.297H34.47V6.802h14.593v3.314H38.36z"/>
</g>
</svg>
